<svg width="24" height="24" viewBox="0 0 24 24" fill="none" xmlns="http://www.w3.org/2000/svg">
<g id="arrows" opacity="0.5">
<path id="Ellipse 17" d="M4 12C4 10.7375 4.29879 9.49296 4.87195 8.36808C5.4451 7.24319 6.27635 6.26993 7.29772 5.52786C8.31909 4.78579 9.50159 4.29599 10.7485 4.09849C11.9955 3.901 13.2714 4.00142 14.4721 4.39155" stroke="#3B5060" stroke-width="1.5" stroke-linecap="round"/>
<path id="Ellipse 18" d="M20 12C20 13.2625 19.7012 14.507 19.1281 15.6319C18.5549 16.7568 17.7237 17.7301 16.7023 18.4721C15.6809 19.2142 14.4984 19.704 13.2515 19.9015C12.0045 20.099 10.7286 19.9986 9.52786 19.6085" stroke="#3B5060" stroke-width="1.5" stroke-linecap="round"/>
<path id="Vector 58" d="M22 14L20.5 11.5L18 13" stroke="#3B5060" stroke-width="1.5" stroke-linecap="round" stroke-linejoin="round"/>
<path id="Vector 59" d="M2 10L3.5 12.5L6 11" stroke="#3B5060" stroke-width="1.5" stroke-linecap="round" stroke-linejoin="round"/>
</g>
</svg>
