<svg width="73" height="72" viewBox="0 0 73 72" fill="none" xmlns="http://www.w3.org/2000/svg">
<g id="Question">
<path id="Vector" d="M66.6667 36C66.6667 52.5685 53.2352 66 36.6667 66C20.0981 66 6.66669 52.5685 6.66669 36C6.66669 19.4315 20.0981 6 36.6667 6C53.2352 6 66.6667 19.4315 66.6667 36Z" stroke="#1B8CD1" stroke-width="2" stroke-linecap="round"/>
<path id="Vector_2" d="M27.6667 30V30C27.6667 25.0294 31.6961 21 36.6667 21H37.1814C41.8677 21 45.6667 24.799 45.6667 29.4853V29.4853C45.6667 31.7357 44.7727 33.894 43.1814 35.4853L36.6667 42" stroke="#1B8CD1" stroke-width="2" stroke-linecap="round"/>
<path id="Vector_3" d="M34.4167 51.75C34.4167 50.5074 35.424 49.5 36.6667 49.5C37.9093 49.5 38.9167 50.5074 38.9167 51.75C38.9167 52.9926 37.9093 54 36.6667 54C35.424 54 34.4167 52.9926 34.4167 51.75Z" fill="#1B8CD1"/>
</g>
</svg>
