<svg width="61" height="60" viewBox="0 0 61 60" fill="none" xmlns="http://www.w3.org/2000/svg">
<g id="Evidence-based medicine-2">
<path id="Vector" d="M15.3999 6.5H10.3999C8.46691 6.5 6.8999 8.067 6.8999 10C6.8999 11.933 8.46691 13.5 10.3999 13.5H15.3999C17.3329 13.5 18.8999 11.933 18.8999 10C18.8999 8.067 17.3329 6.5 15.3999 6.5Z" stroke="#1B8CD1" stroke-width="2" stroke-linecap="round"/>
<path id="Vector_2" d="M50.3999 26.5H45.3999C43.4669 26.5 41.8999 28.067 41.8999 30C41.8999 31.933 43.4669 33.5 45.3999 33.5H50.3999C52.3329 33.5 53.8999 31.933 53.8999 30C53.8999 28.067 52.3329 26.5 50.3999 26.5Z" stroke="#1B8CD1" stroke-width="2" stroke-linecap="round"/>
<path id="Vector 35" d="M25.3999 10H42.8999C48.4227 10 52.8999 14.4772 52.8999 20V20M35.3999 30H22.8999C17.3771 30 12.8999 34.4772 12.8999 40V40M50.3999 50H25.3999" stroke="#37A238" stroke-width="2" stroke-linecap="round"/>
<path id="Vector_3" d="M15.3999 46.5H10.3999C8.46691 46.5 6.8999 48.067 6.8999 50C6.8999 51.933 8.46691 53.5 10.3999 53.5H15.3999C17.3329 53.5 18.8999 51.933 18.8999 50C18.8999 48.067 17.3329 46.5 15.3999 46.5Z" stroke="#1B8CD1" stroke-width="2" stroke-linecap="round"/>
</g>
</svg>
