<svg width="40" height="40" viewBox="0 0 40 40" fill="none" xmlns="http://www.w3.org/2000/svg">
<g id="Energy">
<path id="Vector" d="M16.7615 22.5H9.21241C8.26667 22.5 7.5 21.7333 7.5 20.7876C7.5 20.2877 7.71844 19.8128 8.09799 19.4874L24.6198 5.32586C24.8652 5.11558 25.1776 5 25.5007 5C26.4583 5 27.1131 5.96717 26.7575 6.85628L22.7743 16.8143C22.6429 17.1427 22.8848 17.5 23.2385 17.5H30.7876C31.7333 17.5 32.5 18.2667 32.5 19.2124C32.5 19.7123 32.2816 20.1872 31.902 20.5126L15.3802 34.6741C15.1348 34.8844 14.8224 35 14.4993 35C13.5417 35 12.8869 34.0328 13.2425 33.1437L17.2257 23.1857C17.3571 22.8573 17.1152 22.5 16.7615 22.5Z" fill="white"/>
</g>
</svg>
