<svg width="60" height="60" viewBox="0 0 60 60" fill="none" xmlns="http://www.w3.org/2000/svg">
<g id="Arthritis">
<path id="Vector" d="M25 5C25 10 17.4999 17.5 20 22.5C22.5 27.5 27.5 22.5 30 22.5C32.5 22.5 37.5 27.5 40.0001 22.5C42.5001 17.5 35 10 35.0001 5M35.0001 55C35.0001 50 42.5002 42.5 40.0001 37.5C37.5 32.5 32.5 37.5 30 37.5C27.5 37.5 22.5 32.5 20 37.5C17.5 42.5 25 50 25 55" stroke="#1B8CD1" stroke-width="2" stroke-linecap="round" stroke-linejoin="round"/>
<path id="Vector_2" d="M15.0001 25C17.5 32.5 27.5 28.5 30 28.5C32.5 28.5 42.5 32.5 45.0001 25M19.9999 32.5C15 32.5 15.0001 37.5 15.0001 37.5M40.0002 32.5C45.0001 32.5 45 37.5 45 37.5" stroke="#FF3D3D" stroke-width="2" stroke-linecap="round" stroke-linejoin="round"/>
</g>
</svg>
