<svg width="60" height="60" viewBox="0 0 60 60" fill="none" xmlns="http://www.w3.org/2000/svg">
<g id="Oncological diseases">
<path id="Vector" d="M32.5002 19.9999C32.5002 14.9999 39.9998 5 29.9998 5C19.9997 5 27.5002 14.9999 27.5002 19.9999M27.5001 40.0001C27.5001 45.0001 19.9996 55 29.9998 55C39.9999 55 32.5001 45.0001 32.5001 40.0001" stroke="#FF3D3D" stroke-width="2" stroke-linecap="round"/>
<path id="Vector_2" d="M20.0897 32.8347C15.7595 35.3347 3.34958 33.8398 8.3496 42.5001C13.3496 51.1604 18.2595 39.6648 22.5896 37.1648M39.9104 27.1648C44.2405 24.6648 56.6509 26.1605 51.6509 17.5001C46.6508 8.83971 41.7405 20.3346 37.4104 22.8347" stroke="#FF3D3D" stroke-width="2" stroke-linecap="round"/>
<path id="Vector_3" d="M37.4103 37.1654C41.7405 39.6654 46.6508 51.1602 51.6508 42.4999C56.6508 33.8396 44.2405 35.3353 39.9103 32.8353M22.5896 22.8351C18.2595 20.3351 13.3496 8.83954 8.34955 17.4999C3.34948 26.1603 15.7595 24.6653 20.0897 27.1652" stroke="#FF3D3D" stroke-width="2" stroke-linecap="round"/>
<path id="Vector_4" d="M39.0272 18.0205C38.0223 17.2632 36.9261 16.6354 35.7644 16.1518" stroke="#1B8CD1" stroke-width="2" stroke-linecap="round"/>
<path id="Vector_5" d="M44.8882 31.828C45.0415 30.5791 45.0371 29.3159 44.8751 28.0681" stroke="#1B8CD1" stroke-width="2" stroke-linecap="round"/>
<path id="Vector_6" d="M35.861 43.8076C37.0192 43.3159 38.111 42.6805 39.1106 41.9162" stroke="#1B8CD1" stroke-width="2" stroke-linecap="round"/>
<path id="Vector_7" d="M20.9728 41.9795C21.9777 42.7368 23.0739 43.3646 24.2356 43.8482" stroke="#1B8CD1" stroke-width="2" stroke-linecap="round"/>
<path id="Vector_8" d="M15.1119 28.1708C14.9585 29.4197 14.9628 30.683 15.1248 31.9308" stroke="#1B8CD1" stroke-width="2" stroke-linecap="round"/>
<path id="Vector_9" d="M24.139 16.1924C22.9808 16.6841 21.889 17.3195 20.8894 18.0838" stroke="#1B8CD1" stroke-width="2" stroke-linecap="round"/>
</g>
</svg>
