<svg width="81" height="81" viewBox="0 0 81 81" fill="none" xmlns="http://www.w3.org/2000/svg">
<g id="Increased activity">
<g id="Vector">
<path d="M45.3 56.7828V23.9399C45.3 21.9635 46.9022 20.3614 48.8786 20.3614C49.7675 20.3614 50.6247 20.6922 51.2831 21.2896L68.6188 37.0175C69.562 37.8733 70.1 39.0877 70.1 40.3613C70.1 41.635 69.562 42.8494 68.6188 43.7052L51.2831 59.4331C50.6247 60.0305 49.7675 60.3614 48.8786 60.3614C46.9022 60.3614 45.3 58.7592 45.3 56.7828Z" fill="#F44336"/>
<path d="M45.3 56.7828V23.9399C45.3 21.9635 46.9022 20.3614 48.8786 20.3614C49.7675 20.3614 50.6247 20.6922 51.2831 21.2896L68.6188 37.0175C69.562 37.8733 70.1 39.0877 70.1 40.3613C70.1 41.635 69.562 42.8494 68.6188 43.7052L51.2831 59.4331C50.6247 60.0305 49.7675 60.3614 48.8786 60.3614C46.9022 60.3614 45.3 58.7592 45.3 56.7828Z" fill="url(#paint0_linear_2205_628)" fill-opacity="0.5"/>
</g>
<g id="Vector_2" opacity="0.5">
<path d="M27.7 56.6431L27.7 24.0796C27.7 22.0261 29.3647 20.3614 31.4183 20.3614C32.3217 20.3614 33.1943 20.6903 33.8729 21.2867L51.7978 37.041C52.7527 37.8803 53.3 39.0901 53.3 40.3614C53.3 41.6327 52.7527 42.8424 51.7978 43.6817L33.8729 59.436C33.1943 60.0324 32.3217 60.3614 31.4183 60.3614C29.3647 60.3614 27.7 58.6966 27.7 56.6431Z" fill="#F44336"/>
<path d="M27.7 56.6431L27.7 24.0796C27.7 22.0261 29.3647 20.3614 31.4183 20.3614C32.3217 20.3614 33.1943 20.6903 33.8729 21.2867L51.7978 37.041C52.7527 37.8803 53.3 39.0901 53.3 40.3614C53.3 41.6327 52.7527 42.8424 51.7978 43.6817L33.8729 59.436C33.1943 60.0324 32.3217 60.3614 31.4183 60.3614C29.3647 60.3614 27.7 58.6966 27.7 56.6431Z" fill="url(#paint1_linear_2205_628)" fill-opacity="0.5"/>
</g>
<g id="Vector_3" opacity="0.5">
<path d="M10.9 56.9216L10.9 23.8011C10.9 21.9014 12.4401 20.3613 14.3398 20.3613C15.2137 20.3614 16.0548 20.694 16.6924 21.2917L33.441 36.9935C34.3719 37.8662 34.9 39.0853 34.9 40.3613C34.9 41.6374 34.3719 42.8565 33.441 43.7292L16.6924 59.431C16.0548 60.0287 15.2137 60.3613 14.3398 60.3613C12.4401 60.3613 10.9 58.8213 10.9 56.9216Z" fill="#F44336"/>
<path d="M10.9 56.9216L10.9 23.8011C10.9 21.9014 12.4401 20.3613 14.3398 20.3613C15.2137 20.3614 16.0548 20.694 16.6924 21.2917L33.441 36.9935C34.3719 37.8662 34.9 39.0853 34.9 40.3613C34.9 41.6374 34.3719 42.8565 33.441 43.7292L16.6924 59.431C16.0548 60.0287 15.2137 60.3613 14.3398 60.3613C12.4401 60.3613 10.9 58.8213 10.9 56.9216Z" fill="url(#paint2_linear_2205_628)" fill-opacity="0.5"/>
</g>
</g>
<defs>
<linearGradient id="paint0_linear_2205_628" x1="45.3" y1="40.3613" x2="70.1" y2="40.3613" gradientUnits="userSpaceOnUse">
<stop stop-color="#FFCCBC"/>
<stop offset="1" stop-color="#FFCCBC" stop-opacity="0"/>
</linearGradient>
<linearGradient id="paint1_linear_2205_628" x1="27.7" y1="40.3613" x2="53.3" y2="40.3613" gradientUnits="userSpaceOnUse">
<stop stop-color="#FFCCBC"/>
<stop offset="1" stop-color="#FFCCBC" stop-opacity="0"/>
</linearGradient>
<linearGradient id="paint2_linear_2205_628" x1="10.9" y1="40.3613" x2="34.9" y2="40.3613" gradientUnits="userSpaceOnUse">
<stop stop-color="#FFCCBC"/>
<stop offset="1" stop-color="#FFCCBC" stop-opacity="0"/>
</linearGradient>
</defs>
</svg>
