<svg width="40" height="40" viewBox="0 0 40 40" fill="none" xmlns="http://www.w3.org/2000/svg">
<g id="Age">
<path id="Vector" opacity="0.75" d="M30 12.5H10C7.23858 12.5 5 14.7386 5 17.5V25C5 27.7614 7.23858 30 10 30H30C32.7614 30 35 27.7614 35 25V17.5C35 14.7386 32.7614 12.5 30 12.5Z" fill="white"/>
<path id="Vector_2" d="M13 17.5H12C10.8954 17.5 10 18.3954 10 19.5V20.5C10 21.6046 10.8954 22.5 12 22.5H13C14.1046 22.5 15 21.6046 15 20.5V19.5C15 18.3954 14.1046 17.5 13 17.5Z" fill="white"/>
<g id="Vector_3">
<path d="M13.5 10H10V6.75C10 5.7835 10.7835 5 11.75 5C12.7165 5 13.5 5.7835 13.5 6.75V10Z" fill="white"/>
<path d="M30 10H26.5V6.75C26.5 5.7835 27.2835 5 28.25 5C29.2165 5 30 5.7835 30 6.75V10Z" fill="white"/>
</g>
</g>
</svg>
