<svg width="60" height="60" viewBox="0 0 60 60" fill="none" xmlns="http://www.w3.org/2000/svg">
<g id="Eating disorder">
<path id="Vector" d="M27.5 25C27.5 32.5 29.9999 30 35 32.5C40 35 40 45 30 45M25 25C25.0001 35 30 40 25.0001 45" stroke="#FF3D3D" stroke-width="2" stroke-linecap="round"/>
<path id="Vector_2" d="M17.4999 50C11.4486 50 11.9071 46.7451 12.3101 45.4876C12.4168 45.1546 12.5617 44.8363 12.6831 44.5083C20.0408 24.6331 22.5 2.5 22.5 2.5C22.5 2.5 25 6.5 30 6.5C35 6.5 37.5001 2.5 37.5001 2.5C37.5001 2.5 39.8895 24.0052 47.0044 43.6552C47.3281 44.5491 47.8239 45.3762 48.1717 46.261C49.2283 48.9492 49.4467 55 30 55C-7.50002 55 -0.000183105 42.5 7.49982 47.5" stroke="#1B8CD1" stroke-width="2" stroke-linecap="round" stroke-linejoin="round"/>
<path id="Vector_3" d="M25.5 12.5C25.5 12.5 26.5 12.0001 27.5 12.5001M32.5 12.5001C33.5 12.0001 34.5 12.5001 34.5 12.5001" stroke="#1B8CD1" stroke-width="2" stroke-linecap="round"/>
</g>
</svg>
