<svg width="60" height="60" viewBox="0 0 60 60" fill="none" xmlns="http://www.w3.org/2000/svg">
<g id="Systematic approach">
<path id="Vector" d="M12.5 45C12.5 45 10 50 17.5 50M42.5 25C40 20 37.5 2.5 37.5 2.5C37.5 2.5 35.0001 6.5 30.0001 6.5C25.0001 6.5 22.5 2.5 22.5 2.5C22.5 2.5 20.0001 20 17.5 25M7.50016 47.5C-6.10352e-05 42.5 -7.4999 55 30.0001 55C55 55 47.5 45 47.5 45" stroke="#1B8CD1" stroke-width="2" stroke-linecap="round" stroke-linejoin="round"/>
<path id="Vector_2" d="M45 25H15C9.47715 25 5 29.4772 5 35C5 40.5228 9.47715 45 15 45H45C50.5228 45 55 40.5228 55 35C55 29.4772 50.5228 25 45 25Z" stroke="#37A238" stroke-width="2" stroke-linecap="round" stroke-dasharray="7.5 7.5"/>
<path id="Vector_3" d="M27.5 27.5C27.5 32.5 29.9998 30 34.9999 32.5C40 35 39.9999 42.5 29.9999 42.5M25 27.5C25 32.5 29.9999 37.5 24.9999 42.5" stroke="#37A238" stroke-width="2" stroke-linecap="round"/>
<path id="Vector_4" d="M25.5 12.5C25.5 12.5 26.5 12 27.5 12.5M32.5 12.5C33.5 12 34.5 12.4999 34.5 12.4999" stroke="#1B8CD1" stroke-width="2" stroke-linecap="round"/>
</g>
</svg>
