<svg width="81" height="80" viewBox="0 0 81 80" fill="none" xmlns="http://www.w3.org/2000/svg">
<g id="Pet weight control">
<path id="Vector" d="M8.5 52H72.5V58C72.5 63.5228 68.0228 68 62.5 68H18.5C12.9772 68 8.5 63.5228 8.5 58V52Z" fill="#5C862A"/>
<g id="Vector_2">
<path d="M14.7598 19.8307C15.7766 15.2553 19.8347 12 24.5217 12H56.4783C61.1653 12 65.2234 15.2553 66.2402 19.8307L71.8551 45.098C72.2837 47.0269 72.5 48.9969 72.5 50.9728V50.9728C72.5 55.9584 68.4584 60 63.4728 60H17.5272C12.5416 60 8.5 55.9584 8.5 50.9728V50.9728C8.5 48.9969 8.71625 47.0269 9.14489 45.098L14.7598 19.8307Z" fill="#8BC34A"/>
<path d="M14.7598 19.8307C15.7766 15.2553 19.8347 12 24.5217 12H56.4783C61.1653 12 65.2234 15.2553 66.2402 19.8307L71.8551 45.098C72.2837 47.0269 72.5 48.9969 72.5 50.9728V50.9728C72.5 55.9584 68.4584 60 63.4728 60H17.5272C12.5416 60 8.5 55.9584 8.5 50.9728V50.9728C8.5 48.9969 8.71625 47.0269 9.14489 45.098L14.7598 19.8307Z" fill="url(#paint0_linear_2205_773)"/>
</g>
<path id="Vector_3" d="M29.5532 43.7873C30.1096 41.5615 32.1095 40 34.4039 40H46.5961C48.8905 40 50.8904 41.5615 51.4468 43.7873L52.2383 46.9534C52.4121 47.6485 52.5 48.3623 52.5 49.0788V49.0788C52.5 50.6922 51.1922 52 49.5788 52H31.4212C29.8079 52 28.5 50.6922 28.5 49.0788V49.0788C28.5 48.3623 28.5879 47.6485 28.7617 46.9534L29.5532 43.7873Z" fill="white"/>
<path id="Vector_4" d="M33.3 44L32.5 48M36.7 45.2L36.5 46.8M40.5 44V48M47.7 44L48.5 48M44.3 45.2L44.5 46.8" stroke="#797979" stroke-width="2" stroke-linecap="round" stroke-linejoin="round"/>
</g>
<defs>
<linearGradient id="paint0_linear_2205_773" x1="40.5" y1="12" x2="40.5" y2="60" gradientUnits="userSpaceOnUse">
<stop stop-color="#BCE789"/>
<stop offset="1" stop-color="#BCE789" stop-opacity="0"/>
</linearGradient>
</defs>
</svg>
