<svg width="40" height="40" viewBox="0 0 40 40" fill="none" xmlns="http://www.w3.org/2000/svg">
<g id="Activity">
<path id="Vector" d="M22.5 28.1933V11.8067C22.5 10.8089 23.3089 10 24.3067 10C24.753 10 25.1836 10.1652 25.5153 10.4638L34.2567 18.331C34.7298 18.7568 35 19.3635 35 20C35 20.6365 34.7298 21.2431 34.2567 21.669L25.5153 29.5362C25.1836 29.8348 24.753 30 24.3067 30C23.3089 30 22.5 29.1911 22.5 28.1933Z" fill="white"/>
<path id="Vector_2" opacity="0.5" d="M13.75 28.1933L13.75 11.8067C13.75 10.8089 14.5589 10 15.5567 10C16.003 10 16.4336 10.1652 16.7653 10.4638L25.5067 18.331C25.9798 18.7569 26.25 19.3635 26.25 20C26.25 20.6365 25.9798 21.2432 25.5067 21.669L16.7653 29.5362C16.4336 29.8348 16.003 30 15.5567 30C14.5589 30 13.75 29.1911 13.75 28.1933Z" fill="white"/>
<path id="Vector_3" opacity="0.5" d="M5 28.1933L5 11.8067C5 10.8089 5.80889 9.99999 6.80671 10C7.25304 10 7.68357 10.1652 8.01532 10.4638L16.7567 18.331C17.2298 18.7569 17.5 19.3635 17.5 20C17.5 20.6365 17.2298 21.2431 16.7567 21.669L8.01532 29.5362C7.68357 29.8348 7.25303 30 6.8067 30C5.80889 30 5 29.1911 5 28.1933Z" fill="white"/>
</g>
</svg>
