<svg width="80" height="80" viewBox="0 0 80 80" fill="none" xmlns="http://www.w3.org/2000/svg">
<g id="Certificate">
<path id="Vector" d="M10 22.5C10 19.7386 12.2386 17.5 15 17.5H65C67.7614 17.5 70 19.7386 70 22.5V57.5C70 60.2614 67.7614 62.5 65 62.5H15C12.2386 62.5 10 60.2614 10 57.5V22.5Z" fill="#BEEAFF"/>
<path id="Vector_2" d="M52.5 57.5L56.6056 49.2889C56.9741 48.5518 58.0259 48.5518 58.3944 49.2889L62.5 57.5" stroke="#1B8CD1" stroke-width="2" stroke-linecap="round"/>
<path id="Vector_3" d="M56.0388 41.5634C56.8293 40.7176 58.1707 40.7176 58.9612 41.5634L59.0321 41.6393C59.4264 42.0611 59.9837 42.292 60.5608 42.2725L60.6646 42.269C61.8217 42.2299 62.7701 43.1783 62.731 44.3354L62.7275 44.4392C62.708 45.0163 62.9389 45.5736 63.3607 45.9679L63.4366 46.0388C64.2824 46.8293 64.2824 48.1707 63.4366 48.9612L63.3607 49.0321C62.9389 49.4264 62.708 49.9837 62.7275 50.5608L62.731 50.6646C62.7701 51.8217 61.8217 52.7701 60.6646 52.731L60.5608 52.7275C59.9837 52.708 59.4264 52.9389 59.0321 53.3607L58.9612 53.4366C58.1707 54.2824 56.8293 54.2824 56.0388 53.4366L55.9679 53.3607C55.5736 52.9389 55.0163 52.708 54.4392 52.7275L54.3354 52.731C53.1783 52.7701 52.2299 51.8217 52.269 50.6646L52.2725 50.5608C52.292 49.9837 52.0611 49.4264 51.6393 49.0321L51.5634 48.9612C50.7176 48.1707 50.7176 46.8293 51.5634 46.0388L51.6393 45.9679C52.0611 45.5736 52.292 45.0163 52.2725 44.4392L52.269 44.3354C52.2299 43.1783 53.1783 42.2299 54.3354 42.269L54.4392 42.2725C55.0163 42.292 55.5736 42.0611 55.9679 41.6393L56.0388 41.5634Z" fill="white"/>
<path id="Vector_4" d="M17.5 27.5H21.3197C22.0959 27.5 22.8615 27.6807 23.5557 28.0279L25.8456 29.1728C26.9132 29.7066 28.1365 29.8409 29.2944 29.5514L36.9029 27.6493C37.2995 27.5501 37.7067 27.5 38.1155 27.5H45M17.5 37.5H21.3197C22.0959 37.5 22.8615 37.6807 23.5557 38.0279L25.8456 39.1728C26.9132 39.7066 28.1365 39.8409 29.2944 39.5514L36.9029 37.6493C37.2995 37.5501 37.7067 37.5 38.1155 37.5H42.5" stroke="#1B8CD1" stroke-width="2" stroke-linecap="round"/>
</g>
</svg>
