<svg width="41" height="40" viewBox="0 0 41 40" fill="none" xmlns="http://www.w3.org/2000/svg">
<g id="Life period">
<path id="Vector" d="M28 20C28 24.1421 24.6421 27.5 20.5 27.5C16.3579 27.5 13 24.1421 13 20C13 15.8579 16.3579 12.5 20.5 12.5C24.6421 12.5 28 15.8579 28 20Z" fill="white"/>
<path id="Subtract" fill-rule="evenodd" clip-rule="evenodd" d="M30.185 22.5C30.3906 21.701 30.5 20.8632 30.5 20C30.5 19.1368 30.3906 18.299 30.185 17.5H35.5V22.5H30.185ZM10.815 22.5H5.5V17.5H10.815C10.6094 18.299 10.5 19.1368 10.5 20C10.5 20.8632 10.6094 21.701 10.815 22.5Z" fill="white"/>
</g>
</svg>
