<svg width="41" height="40" viewBox="0 0 41 40" fill="none" xmlns="http://www.w3.org/2000/svg">
<g id="Breed">
<g id="Vector">
<path d="M18.463 4.07401L6.22361 28.5528C5.89116 29.2177 6.37465 30 7.11803 30H9.09612C11.3905 30 13.3904 28.4385 13.9468 26.2127L19.3953 4.41889C19.5402 3.83924 18.7302 3.5396 18.463 4.07401Z" fill="white"/>
<path d="M26.0537 6.7819L16.1426 28.5862C15.8417 29.2483 16.3257 30 17.053 30H17.9733C20.324 30 22.3573 28.3625 22.8584 26.0658L26.9974 7.0954C27.1252 6.50962 26.3018 6.23609 26.0537 6.7819Z" fill="white"/>
<path d="M31.5075 11.9774L25.8742 28.8774C25.6901 29.4297 26.1012 30 26.6833 30C28.8561 30 30.6815 28.3662 30.9215 26.2066L32.4788 12.1908C32.545 11.5947 31.6972 11.4084 31.5075 11.9774Z" fill="white"/>
</g>
</g>
</svg>
