<svg width="60" height="60" viewBox="0 0 60 60" fill="none" xmlns="http://www.w3.org/2000/svg">
<g id="Chronic kidney">
<path id="Vector" d="M17.4999 20.0004C22.4998 17.5002 22.4999 6.50024 12.4999 10.0003C12.4999 10.0003 4.99989 12.5002 4.99989 22.5005C4.99989 32.5007 12.4999 35.0004 12.4999 35.0004C22.4999 38.5002 22.4998 27.5002 17.4999 25.0004M42.5001 20.0004C37.5002 17.5002 37.5001 6.50024 47.5001 10.0003C47.5001 10.0003 55.0001 12.5002 55.0001 22.5005C55.0001 32.5007 47.5001 35.0004 47.5001 35.0004C37.5001 38.5002 37.5002 27.5002 42.5001 25.0004" stroke="#1B8CD1" stroke-width="2" stroke-linecap="round"/>
<path id="Vector_2" d="M22.5 22.5C22.5 22.5 30 22.5 27.5 54.9999M37.5 22.5C37.5 22.5 30 22.5 32.5 54.9999" stroke="#FF3D3D" stroke-width="2" stroke-linecap="round"/>
</g>
</svg>
