<svg width="61" height="60" viewBox="0 0 61 60" fill="none" xmlns="http://www.w3.org/2000/svg">
<g id="Doctor">
<path id="Vector" d="M45.2 5H15.2C12.4386 5 10.2 7.23858 10.2 10V50C10.2 52.7614 12.4386 55 15.2 55H30.2C34.7558 55 39.3116 50.8489 38.194 44.4379C38.0525 43.6261 38.8261 42.8525 39.6379 42.994C46.0489 44.1116 50.2 39.5558 50.2 35V10C50.2 7.23858 47.9614 5 45.2 5Z" stroke="#1B8CD1" stroke-width="2"/>
<path id="Vector_2" d="M24.1927 41.0778C24.7377 40.4947 25.6624 40.4947 26.2073 41.0778V41.0778C26.4791 41.3686 26.8633 41.5277 27.2612 41.5143V41.5143C28.0588 41.4873 28.7127 42.1412 28.6857 42.9388V42.9388C28.6723 43.3367 28.8314 43.7209 29.1222 43.9927V43.9927C29.7053 44.5377 29.7053 45.4623 29.1222 46.0073V46.0073C28.8314 46.2791 28.6723 46.6633 28.6857 47.0612V47.0612C28.7127 47.8588 28.0588 48.5127 27.2612 48.4857V48.4857C26.8633 48.4723 26.4791 48.6314 26.2073 48.9222V48.9222C25.6624 49.5053 24.7377 49.5053 24.1927 48.9222V48.9222C23.9209 48.6314 23.5367 48.4723 23.1388 48.4857V48.4857C22.3412 48.5127 21.6873 47.8588 21.7143 47.0612V47.0612C21.7277 46.6633 21.5686 46.2791 21.2778 46.0073V46.0073C20.6947 45.4623 20.6947 44.5377 21.2778 43.9927V43.9927C21.5686 43.7209 21.7277 43.3367 21.7143 42.9388V42.9388C21.6873 42.1412 22.3412 41.4873 23.1388 41.5143V41.5143C23.5367 41.5277 23.9209 41.3686 24.1927 41.0778V41.0778Z" stroke="#37A238" stroke-width="2"/>
<path id="Vector_3" d="M20.2 15H40.2M22.7 25H37.7" stroke="#37A238" stroke-width="2" stroke-linecap="round"/>
</g>
</svg>
