<svg width="60" height="60" viewBox="0 0 60 60" fill="none" xmlns="http://www.w3.org/2000/svg">
<g id="Urinary stones">
<path id="Vector" d="M27.4999 55C27.4999 51.5472 28.0299 47.0348 27.1383 42.6823C24.7431 30.9896 7.21588 23.1302 12.3187 12.3405C14.2695 8.21573 19.2407 5 30.0001 5C40.7595 5 45.7307 8.21566 47.6816 12.3404C52.7847 23.13 35.2578 30.9896 32.862 42.6823C31.9702 47.0348 32.4999 51.5472 32.4999 55" stroke="#1B8CD1" stroke-width="2" stroke-linecap="round"/>
<g id="Vector_2">
<path d="M27.5 17.4999C30.0002 19.9999 27.4999 22.4999 25 19.9999C22.5001 17.4998 24.9999 14.9999 27.5 17.4999Z" fill="#FF3D3D"/>
<path d="M21 10.9999C18.4999 13.4999 21.0001 15.9999 23.5 13.4999C26 10.9998 23.5002 8.49991 21 10.9999Z" fill="#FF3D3D"/>
<path d="M36.0001 15.9999C33.4999 18.4999 36.0002 20.9999 38.5001 18.4999C41 15.9998 38.5002 13.4999 36.0001 15.9999Z" fill="#FF3D3D"/>
<path d="M30.0001 27.4999C27.4999 29.9999 30.0002 32.4999 32.5001 29.9999C35 27.4998 32.5002 24.9999 30.0001 27.4999Z" fill="#FF3D3D"/>
</g>
</g>
</svg>
