<svg width="60" height="60" viewBox="0 0 60 60" fill="none" xmlns="http://www.w3.org/2000/svg">
<g id="Food allergies">
<path id="Vector" d="M23.3258 22.4733C23.0879 23.5209 22.7631 24.0835 21.9748 24.8133C21.3297 25.4106 21.6161 26.4793 22.4734 26.6741C23.521 26.912 24.0836 27.2368 24.8134 28.0251C25.4107 28.6702 26.4795 28.3838 26.6742 27.5265C26.9121 26.4789 27.2369 25.9163 28.0252 25.1865C28.6703 24.5892 28.3839 23.5204 27.5266 23.3257C26.479 23.0878 25.9164 22.763 25.1866 21.9747C24.5893 21.3296 23.5205 21.6159 23.3258 22.4733Z" stroke="#FF3D3D" stroke-width="2" stroke-linecap="round" stroke-linejoin="round"/>
<path id="Vector_2" d="M49.8134 6.97502C49.0836 7.76326 48.521 8.08809 47.4734 8.32601C46.6161 8.52073 46.3297 9.58947 46.9748 10.1868C47.7631 10.9166 48.0879 11.4792 48.3258 12.5268C48.5206 13.3841 49.5893 13.6705 50.1866 13.0254C50.9164 12.2371 51.479 11.9123 52.5266 11.6744C53.384 11.4796 53.6703 10.4109 53.0252 9.8136C52.2369 9.08378 51.9121 8.52116 51.6742 7.47361C51.4795 6.61625 50.4107 6.32988 49.8134 6.97502Z" stroke="#FF3D3D" stroke-width="2" stroke-linecap="round" stroke-linejoin="round"/>
<path id="Vector_3" d="M48.3259 47.4733C48.0879 48.5209 47.7631 49.0835 46.9749 49.8133C46.3297 50.4106 46.6161 51.4793 47.4735 51.6741C48.521 51.912 49.0836 52.2368 49.8134 53.0251C50.4108 53.6702 51.4795 53.3838 51.6742 52.5265C51.9121 51.4789 52.237 50.9163 53.0252 50.1865C53.6703 49.5892 53.384 48.5204 52.5266 48.3257C51.4791 48.0878 50.9164 47.763 50.1866 46.9747C49.5893 46.3296 48.5206 46.6159 48.3259 47.4733Z" stroke="#FF3D3D" stroke-width="2" stroke-linecap="round" stroke-linejoin="round"/>
<path id="Vector_4" d="M39.0368 32.1262C38.5359 33.0765 38.0765 33.5359 37.1262 34.0368C36.3485 34.4468 36.3485 35.5532 37.1262 35.9632C38.0765 36.4641 38.5359 36.9235 39.0368 37.8738C39.4468 38.6516 40.5532 38.6516 40.9632 37.8738C41.4641 36.9235 41.9235 36.4641 42.8738 35.9632C43.6515 35.5532 43.6515 34.4468 42.8738 34.0368C41.9235 33.5359 41.4641 33.0765 40.9632 32.1262C40.5532 31.3485 39.4468 31.3485 39.0368 32.1262Z" stroke="#FF3D3D" stroke-width="2" stroke-linecap="round" stroke-linejoin="round"/>
<path id="Vector_5" d="M19.0368 47.1262C18.5359 48.0765 18.0765 48.5359 17.1262 49.0368C16.3485 49.4468 16.3485 50.5532 17.1262 50.9632C18.0765 51.4641 18.5359 51.9235 19.0368 52.8738C19.4468 53.6516 20.5532 53.6516 20.9632 52.8738C21.4641 51.9235 21.9235 51.4641 22.8738 50.9632C23.6515 50.5532 23.6515 49.4468 22.8738 49.0368C21.9235 48.5359 21.4641 48.0765 20.9632 47.1262C20.5532 46.3485 19.4468 46.3485 19.0368 47.1262Z" stroke="#FF3D3D" stroke-width="2" stroke-linecap="round" stroke-linejoin="round"/>
<path id="Vector_6" d="M7.72893 37.9929C7.77024 39.0663 7.6021 39.6938 7.0296 40.6028C6.56105 41.3467 7.11426 42.3049 7.99281 42.2711C9.06624 42.2298 9.69376 42.3979 10.6027 42.9704C11.3467 43.439 12.3049 42.8858 12.271 42.0072C12.2297 40.9338 12.3979 40.3063 12.9704 39.3973C13.4389 38.6534 12.8857 37.6952 12.0072 37.729C10.9337 37.7703 10.3062 37.6022 9.39725 37.0297C8.65331 36.5611 7.69511 37.1143 7.72893 37.9929Z" stroke="#FF3D3D" stroke-width="2" stroke-linecap="round" stroke-linejoin="round"/>
<path id="Vector_7" d="M12.7289 12.9929C12.7702 14.0663 12.6021 14.6938 12.0296 15.6028C11.561 16.3467 12.1143 17.3049 12.9928 17.2711C14.0662 17.2298 14.6938 17.3979 15.6027 17.9704C16.3467 18.439 17.3049 17.8858 17.271 17.0072C17.2297 15.9338 17.3979 15.3063 17.9704 14.3973C18.4389 13.6534 17.8857 12.6952 17.0072 12.729C15.9337 12.7703 15.3062 12.6022 14.3972 12.0297C13.6533 11.5611 12.6951 12.1143 12.7289 12.9929Z" stroke="#FF3D3D" stroke-width="2" stroke-linecap="round" stroke-linejoin="round"/>
</g>
</svg>
