<svg width="240" height="240" viewBox="0 0 240 240" fill="none" xmlns="http://www.w3.org/2000/svg">
<g clip-path="url(#clip0_523_6489)">
<path d="M212.416 178.703C225.654 163.228 224.535 148.871 209.06 135.634C193.584 122.396 179.228 123.515 165.991 138.99C153.969 153.044 158.964 181.653 153.654 198.102C153.318 199.142 154.954 200.542 155.93 200.049C171.357 192.254 200.395 192.757 212.416 178.703Z" fill="#8BC34A"/>
<path d="M212.416 178.703C225.654 163.228 224.535 148.871 209.06 135.634C193.584 122.396 179.228 123.515 165.991 138.99C153.969 153.044 158.964 181.653 153.654 198.102C153.318 199.142 154.954 200.542 155.93 200.049C171.357 192.254 200.395 192.757 212.416 178.703Z" fill="url(#paint0_linear_523_6489)"/>
<path d="M172.268 157.759C173.387 172.116 169.269 181.055 169.269 181.055C169.269 181.055 178.545 176.528 192.901 175.409M185.132 137.499C186.251 151.855 182.435 164.67 182.435 164.67C182.435 164.67 196.195 155.895 210.552 154.776M200.235 145.951C191.074 151.961 160.522 192.377 160.522 192.377" stroke="#CBEFA0" stroke-width="2" stroke-linecap="round"/>
<mask id="mask0_523_6489" style="mask-type:alpha" maskUnits="userSpaceOnUse" x="142" y="140" width="10" height="11">
<path d="M142.809 150.426C142.436 145.641 146.848 140.482 151.634 140.109C152.007 144.895 147.594 150.053 142.809 150.426Z" fill="#FFD37C"/>
</mask>
<g mask="url(#mask0_523_6489)">
<path d="M142.809 150.426C142.436 145.641 146.848 140.482 151.634 140.109C152.007 144.895 147.594 150.053 142.809 150.426Z" fill="#EA9C00"/>
<path d="M143.766 150.351C143.393 145.566 147.805 140.408 152.591 140.035C152.964 144.82 148.551 149.979 143.766 150.351Z" fill="#FFD37C"/>
<path d="M143.766 150.351C143.393 145.566 147.805 140.408 152.591 140.035C152.964 144.82 148.551 149.979 143.766 150.351Z" fill="url(#paint1_linear_523_6489)"/>
</g>
<mask id="mask1_523_6489" style="mask-type:alpha" maskUnits="userSpaceOnUse" x="210" y="179" width="8" height="12">
<path d="M217.815 190.404C213.096 189.525 209.255 183.928 210.133 179.209C214.852 180.087 218.693 185.685 217.815 190.404Z" fill="#FFD37C"/>
</mask>
<g mask="url(#mask1_523_6489)">
<path d="M217.815 190.404C213.096 189.525 209.255 183.928 210.133 179.209C214.852 180.087 218.693 185.685 217.815 190.404Z" fill="#EA9C00"/>
<path d="M218.342 189.929C213.623 189.051 209.782 183.454 210.661 178.735C215.38 179.613 219.22 185.211 218.342 189.929Z" fill="#FFD37C"/>
<path d="M218.342 189.929C213.623 189.051 209.782 183.454 210.661 178.735C215.38 179.613 219.22 185.211 218.342 189.929Z" fill="url(#paint2_linear_523_6489)"/>
</g>
<mask id="mask2_523_6489" style="mask-type:alpha" maskUnits="userSpaceOnUse" x="201" y="126" width="7" height="14">
<path d="M206.47 139.671C202.139 137.602 199.878 131.201 201.948 126.87C206.278 128.94 208.54 135.341 206.47 139.671Z" fill="#FFD37C"/>
</mask>
<g mask="url(#mask2_523_6489)">
<path d="M206.47 139.671C202.139 137.602 199.878 131.201 201.948 126.87C206.278 128.94 208.54 135.341 206.47 139.671Z" fill="#EA9C00"/>
<path d="M206.672 138.951C202.341 136.881 200.08 130.48 202.149 126.15C206.48 128.219 208.741 134.62 206.672 138.951Z" fill="#FFD37C"/>
<path d="M206.672 138.951C202.341 136.881 200.08 130.48 202.149 126.15C206.48 128.219 208.741 134.62 206.672 138.951Z" fill="url(#paint3_linear_523_6489)"/>
</g>
<mask id="mask3_523_6489" style="mask-type:alpha" maskUnits="userSpaceOnUse" x="140" y="168" width="15" height="6">
<path d="M140.797 169.841C144.755 167.125 151.429 168.368 154.145 172.325C150.187 175.041 143.513 173.799 140.797 169.841Z" fill="#FFD37C"/>
</mask>
<g mask="url(#mask3_523_6489)">
<path d="M140.797 169.841C144.755 167.125 151.429 168.368 154.145 172.325C150.187 175.041 143.513 173.799 140.797 169.841Z" fill="#EA9C00"/>
<path d="M141.478 169.53C145.436 166.814 152.11 168.057 154.825 172.014C150.867 174.73 144.194 173.488 141.478 169.53Z" fill="#FFD37C"/>
<path d="M141.478 169.53C145.436 166.814 152.11 168.057 154.825 172.014C150.867 174.73 144.194 173.488 141.478 169.53Z" fill="url(#paint4_linear_523_6489)"/>
</g>
<mask id="mask4_523_6489" style="mask-type:alpha" maskUnits="userSpaceOnUse" x="173" y="199" width="15" height="7">
<path d="M173.797 202.966C176.917 199.318 183.684 198.791 187.332 201.911C184.212 205.558 177.444 206.086 173.797 202.966Z" fill="#FFD37C"/>
</mask>
<g mask="url(#mask4_523_6489)">
<path d="M173.797 202.966C176.917 199.318 183.684 198.791 187.332 201.911C184.212 205.558 177.444 206.086 173.797 202.966Z" fill="#EA9C00"/>
<path d="M173.707 203.935C176.827 200.288 183.595 199.76 187.242 202.88C184.122 206.528 177.354 207.055 173.707 203.935Z" fill="#FFD37C"/>
<path d="M173.707 203.935C176.827 200.288 183.595 199.76 187.242 202.88C184.122 206.528 177.354 207.055 173.707 203.935Z" fill="url(#paint5_linear_523_6489)"/>
</g>
<g clip-path="url(#clip1_523_6489)">
<path d="M35.4928 83.1572L0.187699 70.5162L5.13941 61.1364L37.9687 78.4673L35.4928 83.1572Z" fill="#8BC34A"/>
<path d="M35.4928 83.1572L0.187699 70.5162L5.13941 61.1364L37.9687 78.4673L35.4928 83.1572Z" fill="url(#paint6_linear_523_6489)"/>
<path d="M37.9687 78.4672L7.61526 56.4464L10.0911 51.7565L40.4445 73.7773L37.9687 78.4672Z" fill="#34843A"/>
<path d="M37.9687 78.4672L7.61526 56.4464L10.0911 51.7565L40.4445 73.7773L37.9687 78.4672Z" fill="url(#paint7_linear_523_6489)"/>
<path d="M145.836 135.412C103.365 124.985 8.52026 122.89 33.2788 75.9914C58.0373 29.0924 113.269 106.225 145.836 135.412Z" fill="#FF7023"/>
<path d="M145.836 135.412C103.365 124.985 8.52026 122.89 33.2788 75.9914C58.0373 29.0924 113.269 106.225 145.836 135.412Z" fill="url(#paint8_linear_523_6489)"/>
<path d="M65.8463 105.178C66.4462 99.4979 70.798 95.7983 70.798 95.7983M98.9374 110.653C99.5373 104.973 103.889 101.274 103.889 101.274M52.0384 85.8949C52.6383 80.2146 56.9901 76.5151 56.9901 76.5151" stroke="#FFDDCA" stroke-width="2" stroke-linecap="round"/>
</g>
<path d="M22.4862 122.458C22.4862 122.458 18.6597 122.137 16.3222 119.372C12.8161 115.225 15.6877 111.612 15.6877 111.612" stroke="#DDAB8F" stroke-width="2" stroke-linecap="round"/>
<path d="M134.148 30.8022C134.148 30.8022 135.957 27.4149 139.421 26.3623C144.617 24.7836 146.799 28.8505 146.799 28.8505" stroke="#DDAB8F" stroke-width="2" stroke-linecap="round"/>
<path d="M227.094 62.8765C227.094 62.8765 225.827 59.2517 227.399 55.9902C229.756 51.0982 234.226 52.2476 234.226 52.2476" stroke="#DDAB8F" stroke-width="2" stroke-linecap="round"/>
<path d="M68.8209 191.64C68.8209 191.64 69.5667 187.873 72.5753 185.859C77.088 182.838 80.3576 186.095 80.3576 186.095" stroke="#DDAB8F" stroke-width="2" stroke-linecap="round"/>
<path d="M90.8 90.9999C90.8 96.3018 86.502 100.6 81.2 100.6C75.8981 100.6 71.6 100.6 71.6 90.9999C71.6 85.698 75.8981 81.3999 81.2 81.3999C86.502 81.3999 90.8 81.3999 90.8 90.9999Z" fill="#A16441"/>
<path d="M90.8 90.9999C90.8 96.3018 86.502 100.6 81.2 100.6C75.8981 100.6 71.6 100.6 71.6 90.9999C71.6 85.698 75.8981 81.3999 81.2 81.3999C86.502 81.3999 90.8 81.3999 90.8 90.9999Z" fill="url(#paint9_linear_523_6489)"/>
<path d="M42.8 131.8C42.8 135.777 39.5765 139 35.6 139C31.6236 139 28.4 139 28.4 131.8C28.4 127.824 31.6236 124.6 35.6 124.6C39.5765 124.6 42.8 124.6 42.8 131.8Z" fill="#A16441"/>
<path d="M42.8 131.8C42.8 135.777 39.5765 139 35.6 139C31.6236 139 28.4 139 28.4 131.8C28.4 127.824 31.6236 124.6 35.6 124.6C39.5765 124.6 42.8 124.6 42.8 131.8Z" fill="url(#paint10_linear_523_6489)"/>
<path d="M76.4 91.9599C76.4 91.9599 76.4 89.08 78.32 87.1599C81.2 84.28 84.08 86.1999 84.08 86.1999" stroke="#DDAB8F" stroke-width="2" stroke-linecap="round"/>
<path d="M32.2401 132.28C32.2401 132.28 32.2402 130.36 33.2 129.4C35.12 127.48 38 129.4 38 129.4" stroke="#DDAB8F" stroke-width="2" stroke-linecap="round"/>
<path d="M133.086 197.582C127.791 197.311 123.718 192.799 123.989 187.504C124.26 182.209 124.479 177.917 134.067 178.407C139.362 178.678 143.435 183.19 143.164 188.485C142.893 193.78 142.673 198.072 133.086 197.582Z" fill="#A16441"/>
<path d="M133.086 197.582C127.791 197.311 123.718 192.799 123.989 187.504C124.26 182.209 124.479 177.917 134.067 178.407C139.362 178.678 143.435 183.19 143.164 188.485C142.893 193.78 142.673 198.072 133.086 197.582Z" fill="url(#paint11_linear_523_6489)"/>
<path d="M94.791 147.561C90.8197 147.357 87.7651 143.973 87.9682 140.002C88.1713 136.031 88.336 132.812 95.5266 133.179C99.4978 133.382 102.553 136.766 102.349 140.738C102.146 144.709 101.982 147.928 94.791 147.561Z" fill="#A16441"/>
<path d="M94.791 147.561C90.8197 147.357 87.7651 143.973 87.9682 140.002C88.1713 136.031 88.336 132.812 95.5266 133.179C99.4978 133.382 102.553 136.766 102.349 140.738C102.146 144.709 101.982 147.928 94.791 147.561Z" fill="url(#paint12_linear_523_6489)"/>
<path d="M132.863 183.152C132.863 183.152 135.739 183.299 137.558 185.315C140.287 188.338 138.223 191.116 138.223 191.116" stroke="#DDAB8F" stroke-width="2" stroke-linecap="round"/>
<path d="M94.8511 136.99C94.8511 136.99 96.7686 137.088 97.6783 138.096C99.4977 140.111 97.4331 142.889 97.4331 142.889" stroke="#DDAB8F" stroke-width="2" stroke-linecap="round"/>
<path d="M89.0867 25.1851C86.9284 30.0278 81.2529 32.204 76.4101 30.0457C71.5674 27.8874 67.6416 26.1377 71.5495 17.3692C73.7078 12.5264 79.3833 10.3502 84.226 12.5085C89.0688 14.6668 92.9946 16.4165 89.0867 25.1851Z" fill="#A16441"/>
<path d="M89.0867 25.1851C86.9284 30.0278 81.2529 32.204 76.4101 30.0457C71.5674 27.8874 67.6416 26.1377 71.5495 17.3692C73.7078 12.5264 79.3833 10.3502 84.226 12.5085C89.0688 14.6668 92.9946 16.4165 89.0867 25.1851Z" fill="url(#paint13_linear_523_6489)"/>
<path d="M28.635 42.9118C27.0162 46.5438 22.7596 48.1759 19.1276 46.5572C15.4955 44.9385 12.5511 43.6263 15.4821 37.0498C17.1008 33.4178 21.3574 31.7856 24.9895 33.4044C28.6215 35.0231 31.5659 36.3353 28.635 42.9118Z" fill="#A16441"/>
<path d="M28.635 42.9118C27.0162 46.5438 22.7596 48.1759 19.1276 46.5572C15.4955 44.9385 12.5511 43.6263 15.4821 37.0498C17.1008 33.4178 21.3574 31.7856 24.9895 33.4044C28.6215 35.0231 31.5659 36.3353 28.635 42.9118Z" fill="url(#paint14_linear_523_6489)"/>
<path d="M75.5429 20.2C75.5429 20.2 76.7153 17.5695 79.2506 16.5973C83.0536 15.1391 84.9025 18.0652 84.9025 18.0652" stroke="#DDAB8F" stroke-width="2" stroke-linecap="round"/>
<path d="M18.7942 39.0514C18.7942 39.0514 19.5758 37.2977 20.8434 36.8116C23.3786 35.8394 25.2276 38.7655 25.2276 38.7655" stroke="#DDAB8F" stroke-width="2" stroke-linecap="round"/>
<path d="M161.666 69.7519C166.832 68.5605 171.986 71.7828 173.178 76.9491C174.369 82.1154 175.335 86.3036 165.981 88.4609C160.814 89.6523 155.66 86.43 154.469 81.2637C153.277 76.0974 152.312 71.9092 161.666 69.7519Z" fill="#A16441"/>
<path d="M161.666 69.7519C166.832 68.5605 171.986 71.7828 173.178 76.9491C174.369 82.1154 175.335 86.3036 165.981 88.4609C160.814 89.6523 155.66 86.43 154.469 81.2637C153.277 76.0974 152.312 71.9092 161.666 69.7519Z" fill="url(#paint15_linear_523_6489)"/>
<path d="M212.209 107.356C216.084 106.462 219.949 108.879 220.843 112.754C221.737 116.628 222.461 119.769 215.445 121.387C211.57 122.281 207.705 119.864 206.811 115.99C205.918 112.115 205.193 108.974 212.209 107.356Z" fill="#A16441"/>
<path d="M212.209 107.356C216.084 106.462 219.949 108.879 220.843 112.754C221.737 116.628 222.461 119.769 215.445 121.387C211.57 122.281 207.705 119.864 206.811 115.99C205.918 112.115 205.193 108.974 212.209 107.356Z" fill="url(#paint16_linear_523_6489)"/>
<path d="M165.837 83.5679C165.837 83.5679 163.031 84.2151 160.729 82.7756C157.275 80.6165 158.499 77.3787 158.499 77.3787" stroke="#DDAB8F" stroke-width="2" stroke-linecap="round"/>
<path d="M215.05 117.538C215.05 117.538 213.179 117.969 212.028 117.25C209.725 115.81 210.949 112.572 210.949 112.572" stroke="#DDAB8F" stroke-width="2" stroke-linecap="round"/>
</g>
<defs>
<linearGradient id="paint0_linear_523_6489" x1="182.498" y1="126.871" x2="188.186" y2="199.85" gradientUnits="userSpaceOnUse">
<stop stop-color="#BCE789"/>
<stop offset="1" stop-color="#BCE789" stop-opacity="0"/>
</linearGradient>
<linearGradient id="paint1_linear_523_6489" x1="147.805" y1="140.408" x2="148.551" y2="149.979" gradientUnits="userSpaceOnUse">
<stop stop-color="#FFE8B9"/>
<stop offset="1" stop-color="#FFE8B9" stop-opacity="0"/>
</linearGradient>
<linearGradient id="paint2_linear_523_6489" x1="209.782" y1="183.454" x2="219.22" y2="185.211" gradientUnits="userSpaceOnUse">
<stop stop-color="#FFE8B9"/>
<stop offset="1" stop-color="#FFE8B9" stop-opacity="0"/>
</linearGradient>
<linearGradient id="paint3_linear_523_6489" x1="200.08" y1="130.48" x2="208.741" y2="134.62" gradientUnits="userSpaceOnUse">
<stop stop-color="#FFE8B9"/>
<stop offset="1" stop-color="#FFE8B9" stop-opacity="0"/>
</linearGradient>
<linearGradient id="paint4_linear_523_6489" x1="152.11" y1="168.057" x2="144.194" y2="173.488" gradientUnits="userSpaceOnUse">
<stop stop-color="#FFE8B9"/>
<stop offset="1" stop-color="#FFE8B9" stop-opacity="0"/>
</linearGradient>
<linearGradient id="paint5_linear_523_6489" x1="183.595" y1="199.76" x2="177.354" y2="207.055" gradientUnits="userSpaceOnUse">
<stop stop-color="#FFE8B9"/>
<stop offset="1" stop-color="#FFE8B9" stop-opacity="0"/>
</linearGradient>
<linearGradient id="paint6_linear_523_6489" x1="2.40174" y1="77.6819" x2="34.6476" y2="67.7187" gradientUnits="userSpaceOnUse">
<stop stop-color="#BCE789"/>
<stop offset="1" stop-color="#BCE789" stop-opacity="0"/>
</linearGradient>
<linearGradient id="paint7_linear_523_6489" x1="11.4898" y1="68.9864" x2="36.57" y2="61.2373" gradientUnits="userSpaceOnUse">
<stop stop-color="#65C26C"/>
<stop offset="1" stop-color="#65C26C" stop-opacity="0"/>
</linearGradient>
<linearGradient id="paint8_linear_523_6489" x1="36.6817" y1="117.351" x2="131.23" y2="88.1378" gradientUnits="userSpaceOnUse">
<stop stop-color="#FFAA7D"/>
<stop offset="1" stop-color="#FFAA7D" stop-opacity="0"/>
</linearGradient>
<linearGradient id="paint9_linear_523_6489" x1="81.2" y1="81.3999" x2="81.2" y2="100.6" gradientUnits="userSpaceOnUse">
<stop stop-color="#C89578"/>
<stop offset="1" stop-color="#C89578" stop-opacity="0"/>
</linearGradient>
<linearGradient id="paint10_linear_523_6489" x1="35.6" y1="124.6" x2="35.6" y2="139" gradientUnits="userSpaceOnUse">
<stop stop-color="#C89578"/>
<stop offset="1" stop-color="#C89578" stop-opacity="0"/>
</linearGradient>
<linearGradient id="paint11_linear_523_6489" x1="143.164" y1="188.485" x2="123.989" y2="187.504" gradientUnits="userSpaceOnUse">
<stop stop-color="#C89578"/>
<stop offset="1" stop-color="#C89578" stop-opacity="0"/>
</linearGradient>
<linearGradient id="paint12_linear_523_6489" x1="102.349" y1="140.738" x2="87.9682" y2="140.002" gradientUnits="userSpaceOnUse">
<stop stop-color="#C89578"/>
<stop offset="1" stop-color="#C89578" stop-opacity="0"/>
</linearGradient>
<linearGradient id="paint13_linear_523_6489" x1="84.226" y1="12.5085" x2="76.4101" y2="30.0457" gradientUnits="userSpaceOnUse">
<stop stop-color="#C89578"/>
<stop offset="1" stop-color="#C89578" stop-opacity="0"/>
</linearGradient>
<linearGradient id="paint14_linear_523_6489" x1="24.9895" y1="33.4044" x2="19.1276" y2="46.5572" gradientUnits="userSpaceOnUse">
<stop stop-color="#C89578"/>
<stop offset="1" stop-color="#C89578" stop-opacity="0"/>
</linearGradient>
<linearGradient id="paint15_linear_523_6489" x1="154.469" y1="81.2637" x2="173.178" y2="76.9491" gradientUnits="userSpaceOnUse">
<stop stop-color="#C89578"/>
<stop offset="1" stop-color="#C89578" stop-opacity="0"/>
</linearGradient>
<linearGradient id="paint16_linear_523_6489" x1="206.811" y1="115.99" x2="220.843" y2="112.754" gradientUnits="userSpaceOnUse">
<stop stop-color="#C89578"/>
<stop offset="1" stop-color="#C89578" stop-opacity="0"/>
</linearGradient>
<clipPath id="clip0_523_6489">
<rect width="240" height="240" fill="white"/>
</clipPath>
<clipPath id="clip1_523_6489">
<rect width="150" height="150" fill="white" transform="translate(21.2809 189.596) rotate(-107.17)"/>
</clipPath>
</defs>
</svg>
