<svg width="40" height="40" viewBox="0 0 40 40" fill="none" xmlns="http://www.w3.org/2000/svg">
<g id="Illnesses">
<path id="Vector" d="M33.5 19V21C33.5 22.3807 32.3807 23.5 31 23.5H24.5C23.9477 23.5 23.5 23.9477 23.5 24.5V31C23.5 32.3807 22.3807 33.5 21 33.5H19C17.6193 33.5 16.5 32.3807 16.5 31V24.5C16.5 23.9477 16.0523 23.5 15.5 23.5H9C7.61929 23.5 6.5 22.3807 6.5 21V19C6.5 17.6193 7.61929 16.5 9 16.5H15.5C16.0523 16.5 16.5 16.0523 16.5 15.5V9C16.5 7.61929 17.6193 6.5 19 6.5H21C22.3807 6.5 23.5 7.61929 23.5 9V15.5C23.5 16.0523 23.9477 16.5 24.5 16.5H31C32.3807 16.5 33.5 17.6193 33.5 19Z" fill="white"/>
</g>
</svg>
