<svg width="60" height="60" viewBox="0 0 60 60" fill="none" xmlns="http://www.w3.org/2000/svg">
<g id="Obesity">
<path id="Vector" d="M7.5 7.50001C10 10 15 4.99997 17.5 7.50001C20 10 20 10 27.5 7.50001C35 4.99998 40 10 42.5 7.5C45 5 50 9.99998 52.5 7.5" stroke="#FF3D3D" stroke-width="2" stroke-linecap="round"/>
<g id="Vector_2">
<path d="M6.50012 13C5.50013 13.9999 7.50009 16.0001 8.50004 15.0001C9.49999 14.0001 7.50011 12.0001 6.50012 13Z" fill="#FF3D3D"/>
<path d="M8.50028 18C9.50027 18.9999 7.50031 21.0001 6.50036 20.0001C5.50041 19.0001 7.50029 17.0001 8.50028 18Z" fill="#FF3D3D"/>
<path d="M16.0002 15.5001C17.0002 16.5 15.0002 18.5002 14.0003 17.5002C13.0003 16.5002 15.0002 14.5002 16.0002 15.5001Z" fill="#FF3D3D"/>
<path d="M21.5003 13C20.5003 13.9999 22.5003 16.0001 23.5002 15.0001C24.5002 14.0001 22.5003 12.0001 21.5003 13Z" fill="#FF3D3D"/>
<path d="M25.5003 17.0001C24.5003 18 26.5003 20.0002 27.5002 19.0002C28.5002 18.0002 26.5003 16.0002 25.5003 17.0001Z" fill="#FF3D3D"/>
<path d="M33.5002 18.0002C34.5002 19.0001 32.5003 21.0003 31.5003 20.0003C30.5004 19.0003 32.5002 17.0003 33.5002 18.0002Z" fill="#FF3D3D"/>
<path d="M38.5001 13.0001C39.5001 14 37.5001 16.0002 36.5002 15.0002C35.5002 14.0002 37.5001 12.0002 38.5001 13.0001Z" fill="#FF3D3D"/>
<path d="M36.5004 18.0001C35.5005 19 37.5004 21.0002 38.5004 20.0002C39.5003 19.0002 37.5004 17.0002 36.5004 18.0001Z" fill="#FF3D3D"/>
<path d="M46.0003 15.5002C47.0003 16.5001 45.0003 18.5003 44.0004 17.5003C43.0004 16.5003 45.0003 14.5003 46.0003 15.5002Z" fill="#FF3D3D"/>
<path d="M51.5004 13.0001C50.5004 14 52.5003 16.0002 53.5003 15.0002C54.5002 14.0002 52.5004 12.0002 51.5004 13.0001Z" fill="#FF3D3D"/>
</g>
<path id="Vector_3" d="M52.5 27.5C50 30 45 25 42.5 27.5C40 30 40 30 32.5 27.5C25 25 20 30 17.5 27.5C15 25 10 30 7.5 27.5" stroke="#1B8CD1" stroke-width="2" stroke-linecap="round"/>
<path id="Vector_4" d="M5.00006 54.9998C5.00006 54.9998 10.0001 49.9998 22.5001 52.4998C35.0001 54.9997 40.0001 54.9998 55.0001 54.9998" stroke="#1B8CD1" stroke-width="2" stroke-linecap="round"/>
</g>
</svg>
