<svg width="81" height="80" viewBox="0 0 81 80" fill="none" xmlns="http://www.w3.org/2000/svg">
<g id="Improving life">
<g id="Vector">
<path d="M68.5 15.9999C80.4161 27.916 68.6665 51.665 41.0847 71.58C40.7383 71.8301 40.2618 71.8301 39.9154 71.58C12.3335 51.665 0.58383 27.916 12.5 15.9999C24.5 3.99986 40.1 15.9999 40.5001 27.9999C40.9 15.9999 56.5 3.99986 68.5 15.9999Z" fill="#F44336"/>
<path d="M68.5 15.9999C80.4161 27.916 68.6665 51.665 41.0847 71.58C40.7383 71.8301 40.2618 71.8301 39.9154 71.58C12.3335 51.665 0.58383 27.916 12.5 15.9999C24.5 3.99986 40.1 15.9999 40.5001 27.9999C40.9 15.9999 56.5 3.99986 68.5 15.9999Z" fill="url(#paint0_linear_2205_1327)" fill-opacity="0.5"/>
</g>
</g>
<defs>
<linearGradient id="paint0_linear_2205_1327" x1="40.5001" y1="12.6399" x2="40.5001" y2="71.9999" gradientUnits="userSpaceOnUse">
<stop stop-color="#FFCCBC"/>
<stop offset="1" stop-color="#FFCCBC" stop-opacity="0"/>
</linearGradient>
</defs>
</svg>
