<svg width="81" height="81" viewBox="0 0 81 81" fill="none" xmlns="http://www.w3.org/2000/svg">
<g id="Saving on veterinary services">
<path id="Vector" d="M17.7 63.1613C9.52621 54.9875 9.52621 41.7351 17.7 33.5613L18.9 32.3613L48.5 61.9613L47.3 63.1613C39.1262 71.3351 25.8738 71.3351 17.7 63.1613V63.1613Z" fill="#CD762E"/>
<g id="Vector_2">
<rect x="12.5" y="24.3613" width="44" height="44" rx="22" fill="#D9D9D9"/>
<rect x="12.5" y="24.3613" width="44" height="44" rx="22" fill="#F7BA3A"/>
<rect x="12.5" y="24.3613" width="44" height="44" rx="22" fill="url(#paint0_linear_2205_653)"/>
</g>
<path id="Vector_3" d="M33.7 47.1613C25.5262 38.9875 25.5262 25.7351 33.7 17.5613L34.9 16.3613L64.5 45.9613L63.3 47.1613C55.1262 55.3351 41.8738 55.3351 33.7 47.1613V47.1613Z" fill="#CD762E"/>
<g id="Vector_4">
<rect x="28.5" y="8.36133" width="44" height="44" rx="22" fill="#F7BA3A"/>
<rect x="28.5" y="8.36133" width="44" height="44" rx="22" fill="url(#paint1_linear_2205_653)"/>
</g>
</g>
<defs>
<linearGradient id="paint0_linear_2205_653" x1="34.5" y1="24.3613" x2="34.5" y2="68.3613" gradientUnits="userSpaceOnUse">
<stop stop-color="#FFD272"/>
<stop offset="1" stop-color="#FFD272" stop-opacity="0"/>
</linearGradient>
<linearGradient id="paint1_linear_2205_653" x1="50.5" y1="8.36133" x2="50.5" y2="52.3613" gradientUnits="userSpaceOnUse">
<stop stop-color="#FFD272"/>
<stop offset="1" stop-color="#FFD272" stop-opacity="0"/>
</linearGradient>
</defs>
</svg>
