<svg width="40" height="40" viewBox="0 0 40 40" fill="none" xmlns="http://www.w3.org/2000/svg">
<g id="Your wishes">
<path id="Vector" opacity="0.5" d="M8.5 7.5C8.5 5.29086 10.2909 3.5 12.5 3.5H17.5C19.7091 3.5 21.5 5.29086 21.5 7.5V12.5C21.5 14.7091 19.7091 16.5 17.5 16.5H12.5C10.2909 16.5 8.5 14.7091 8.5 12.5V7.5Z" fill="white"/>
<path id="Vector_2" opacity="0.5" d="M18.5 27.5C18.5 25.2909 20.2909 23.5 22.5 23.5H27.5C29.7091 23.5 31.5 25.2909 31.5 27.5V32.5C31.5 34.7091 29.7091 36.5 27.5 36.5H22.5C20.2909 36.5 18.5 34.7091 18.5 32.5V27.5Z" fill="white"/>
<path id="Vector_3" d="M13.4132 11.7665L10.5011 8.12635C10.2991 7.87393 10.4789 7.5 10.8021 7.5C11.2531 7.5 11.6897 7.65809 12.0361 7.94677L13.7465 9.37209C14.165 9.72082 14.7856 9.67045 15.1424 9.2588L20.4564 3.12727C20.8016 2.72888 21.3029 2.5 21.8301 2.5C22.1185 2.5 22.2921 2.81984 22.1349 3.0617L16.578 11.6107C16.2175 12.1654 15.6009 12.5 14.9394 12.5C14.3456 12.5 13.7841 12.2301 13.4132 11.7665Z" fill="white"/>
<path id="Vector_4" d="M23.4132 31.7665L20.5011 28.1263C20.2991 27.8739 20.4789 27.5 20.8021 27.5C21.2531 27.5 21.6897 27.6581 22.0361 27.9468L23.7465 29.3721C24.165 29.7208 24.7856 29.6705 25.1424 29.2588L30.4564 23.1273C30.8016 22.7289 31.3029 22.5 31.8301 22.5C32.1185 22.5 32.2921 22.8198 32.1349 23.0617L26.578 31.6107C26.2175 32.1654 25.6009 32.5 24.9394 32.5C24.3456 32.5 23.7841 32.2301 23.4132 31.7665Z" fill="white"/>
</g>
</svg>
